#!OML:ASF H:\Terrain\Walking\May29\JustinRory\Justin.ASF
:FULLY-SPECIFIED
:DEGREES
1016
root 8.77029 17.5072 16.5518 -179.531 -44.6848 183.483
lowerback 8.12713 -7.1798 -8.26853
upperback -0.100245 -10.2654 3.59048
thorax -2.5114 -5.03962 9.257
lowerneck -1.32783 -13.5968 -18.8522
upperneck 9.42209 -19.5425 14.7635
head 6.38376 -9.74795 5.97134
rclavicle 9.83984e-015 2.0276e-014
rhumerus -31.421 22.7277 -73.7207
rradius 85.2807
rwrist -8.17019
rhand -2.76867 18.9226
rfingers 7.12502
rthumb 22.936 -9.73312
lclavicle 9.83984e-015 2.0276e-014
lhumerus 26.5683 -33.7847 67.0595
lradius 65.9
lwrist -5.38406
lhand 16.0573 28.4119
lfingers 7.12502
lthumb 40.846 53.377
rfemur -24.5649 -13.4083 14.7675
rtibia 34.9197
rfoot -7.39075 -15.7304
rtoes 9.64218
lfemur 12.1444 2.40516 0.925961
ltibia 14.7131
lfoot -2.34351 21.2687
ltoes -21.6208
1017
root 8.79171 17.5201 16.4446 -179.35 -44.1822 183.531
lowerback 7.81614 -7.19672 -8.01783
upperback -0.0175206 -10.2413 3.54003
thorax -2.30939 -5.04555 9.00731
lowerneck -1.84308 -13.5862 -18.7544
upperneck 9.55772 -19.4214 14.6367
head 6.46966 -9.66317 5.8967
rclavicle 8.44835e-016 -2.01766e-014
rhumerus -32.0381 22.7442 -75.2053
rradius 83.3687
rwrist -8.36257
rhand -2.1727 18.1947
rfingers 7.12502
rthumb 23.5077 -10.3889
lclavicle 8.44835e-016 -2.01766e-014
lhumerus 24.8888 -33.35 67.2868
lradius 65.907
lwrist -5.5986
lhand 10.0227 35.9886
lfingers 7.12502
lthumb 35.1478 62.51
rfemur -24.6966 -13.3086 15.2671
rtibia 34.8192
rfoot -6.83156 -15.3715
rtoes 6.70556
lfemur 11.345 2.5592 1.20932
ltibia 16.2712
lfoot -1.04156 21.0104
ltoes -22.4839
1018
root 8.81092 17.5417 16.3401 -179.623 -43.6368 183.965
lowerback 7.70055 -7.12276 -7.34528
upperback 0.105818 -10.0757 3.42741
thorax -2.28497 -4.97466 8.48925
lowerneck -2.29383 -13.5952 -18.5115
upperneck 9.88186 -19.4117 14.5993
head 6.61795 -9.63329 5.81591
rclavicle -1.04362e-015 -1.31198e-014
rhumerus -32.9182 21.7965 -76.875
rradius 81.2632
rwrist -8.0201
rhand -1.58633 18.5266
rfingers 7.12502
rthumb 24.0701 -9.98378
lclavicle -1.04362e-015 -1.31198e-014
lhumerus 23.1482 -33.0863 67.569
lradius 65.8815
lwrist -5.87697
lhand 27.1472 30.3011
lfingers 7.12502
lthumb 51.1248 50.9125
rfemur -24.4954 -13.055 16.0027
rtibia 34.6613
rfoot -6.4521 -14.9952
rtoes 4.83933
lfemur 10.7089 2.71036 1.79347
ltibia 17.8765
lfoot 0.171727 21.1701
ltoes -22.0497
1019
root 8.8273 17.5701 16.2405 -179.847 -43.0972 184.245
lowerback 7.74424 -6.93194 -6.98899
upperback 0.150399 -9.79382 3.44621
thorax -2.37284 -4.83479 8.31018
lowerneck -2.11081 -13.4983 -18.8002
upperneck 9.70903 -19.3444 15.0373
head 6.59716 -9.60397 6.02102
rclavicle 1.799e-014 1.03368e-014
rhumerus -33.9755 20.5723 -78.0285
rradius 79.3699
rwrist -7.75667
rhand -1.02469 18.7741
rfingers 7.12502
rthumb 24.6085 -9.66402
lclavicle 1.799e-014 1.03368e-014
lhumerus 21.2494 -32.925 68.4063
lradius 65.634
lwrist -6.47069
lhand 21.0893 27.7106
lfingers 7.12502
lthumb 45.5485 50.9908
rfemur -24.1665 -12.7553 16.5656
rtibia 34.461
rfoot -6.66911 -14.7553
rtoes 5.39043
lfemur 10.1454 2.72995 2.19967
ltibia 19.4483
lfoot 1.33079 21.8893
ltoes -19.1067
1020
root 8.83981 17.5881 16.1456 -179.935 -42.469 184.562
lowerback 7.77561 -6.807 -6.3299
upperback -0.000641234 -9.56991 3.34787
thorax -2.71494 -4.70431 7.8607
lowerneck -1.60568 -13.3496 -18.943
upperneck 9.42295 -19.2459 15.3688
head 6.45382 -9.57833 6.20295
rclavicle 8.46077e-015 5.1684e-015
rhumerus -35.1237 19.657 -79.3096
rradius 77.4713
rwrist -8.09384
rhand -0.868543 18.7426
rfingers 7.12502
rthumb 24.7582 -9.67504
lclavicle 8.46077e-015 5.1684e-015
lhumerus 18.7754 -32.8399 69.2755
lradius 65.539
lwrist -7.07152
lhand 20.5074 27.7034
lfingers 7.12502
lthumb 45.0075 51.2
rfemur -24.0625 -12.4889 17.1921
rtibia 34.2324
rfoot -6.81766 -14.491
rtoes 5.1754
lfemur 9.49533 2.74539 2.55804
ltibia 20.9594
lfoot 2.48226 22.5842
ltoes -16.3802
1021
root 8.85054 17.6049 16.0519 -180.078 -41.7466 185.012
lowerback 7.59713 -6.71172 -5.62805
upperback 0.0650976 -9.37419 3.36285
thorax -2.69005 -4.61969 7.45406
lowerneck -1.84589 -13.4243 -18.6549
upperneck 9.41317 -19.2567 15.0617
head 6.43213 -9.56995 6.04644
rclavicle -5.06901e-014 -1.92821e-014
rhumerus -35.5497 18.8816 -80.291
rradius 75.4605
rwrist -8.98938
rhand -0.943779 18.5025
rfingers 7.12502
rthumb 24.6861 -9.92503
lclavicle -5.06901e-014 -1.92821e-014
lhumerus 16.5389 -32.1382 70.235
lradius 65.4909
lwrist -7.64596
lhand 20.6578 28.0942
lfingers 7.12502
lthumb 45.1474 51.5354
rfemur -24.046 -12.2219 17.9202
rtibia 34.0291
rfoot -6.8765 -14.0639
rtoes 5.57636
lfemur 8.85233 2.65725 2.96492
ltibia 22.442
lfoot 3.14062 23.352
ltoes -13.5552
1022
root 8.86245 17.6283 15.9635 -180.04 -41.0218 185.076
lowerback 7.55976 -6.63347 -5.21836
upperback 0.158589 -9.23516 3.30858
thorax -2.66743 -4.55913 7.15462
lowerneck -2.33026 -13.4815 -18.3688
upperneck 9.60342 -19.2292 14.7372
head 6.50637 -9.53319 5.8708
rclavicle -2.48729e-014 4.4329e-014
rhumerus -35.9387 18.0866 -81.272
rradius 73.592
rwrist -9.98162
rhand -1.47195 18.1611
rfingers 7.12502
rthumb 24.1798 -10.3347
lclavicle -2.48729e-014 4.4329e-014
lhumerus 14.3392 -30.9227 71.3929
lradius 65.2786
lwrist -8.35383
lhand 21.1016 28.2227
lfingers 7.12502
lthumb 45.5599 51.4983
rfemur -23.9757 -11.8604 18.255
rtibia 33.8778
rfoot -7.09433 -13.6178
rtoes 7.43424
lfemur 8.2522 2.39964 3.00221
ltibia 23.9078
lfoot 3.80662 23.872
ltoes -9.89827
1023
root 8.87494 17.6475 15.8788 -179.854 -40.2556 185.058
lowerback 7.67662 -6.49391 -4.83083
upperback 0.0162672 -9.01818 3.20625
thorax -2.99087 -4.43483 6.85663
lowerneck -2.2755 -13.3526 -18.4921
upperneck 9.56464 -19.1037 15.0328
head 6.50705 -9.47182 6.00612
rclavicle -4.70126e-014 -1.05356e-014
rhumerus -36.7653 17.0945 -82.3169
rradius 71.8215
rwrist -10.8154
rhand -2.16101 17.9144
rfingers 7.12502
rthumb 23.519 -10.6678
lclavicle -4.70126e-014 -1.05356e-014
lhumerus 11.8313 -29.777 72.736
lradius 65.0107
lwrist -9.36675
lhand 21.6307 27.951
lfingers 7.12502
lthumb 46.051 51.0242
rfemur -24.0226 -11.3361 18.5361
rtibia 33.7416
rfoot -7.24482 -13.2863
rtoes 8.47745
lfemur 7.53392 2.19779 2.91599
ltibia 25.3539
lfoot 4.94721 23.7166
ltoes -5.94435
1024
root 8.88329 17.6651 15.793 -179.545 -39.4699 184.795
lowerback 7.65671 -6.2074 -4.77812
upperback 0.0100107 -8.63005 3.1056
thorax -3.06704 -4.2366 6.6984
lowerneck -2.13376 -13.3357 -18.5013
upperneck 9.27999 -19.0951 15.2461
head 6.41608 -9.46667 6.09065
rclavicle -3.83157e-014 1.5704e-014
rhumerus -37.4302 15.9369 -82.9269
rradius 70.2417
rwrist -11.7577
rhand -2.81142 17.4024
rfingers 7.12502
rthumb 22.8949 -11.2584
lclavicle -3.83157e-014 1.5704e-014
lhumerus 9.68681 -28.8428 74.0982
lradius 64.6687
lwrist -10.4742
lhand 21.9809 27.8858
lfingers 7.12502
lthumb 46.3758 50.8222
rfemur -24.0374 -11.0077 18.6355
rtibia 33.5931
rfoot -7.10627 -12.8396
rtoes 7.40793
lfemur 6.85103 2.13517 2.57696
ltibia 26.7884
lfoot 5.73051 23.5023
ltoes -1.84215
1025
root 8.88516 17.6866 15.7085 -179.452 -38.7428 184.594
lowerback 7.68996 -5.93117 -4.71332
upperback 0.152621 -8.26004 3.06362
thorax -3.00542 -4.05979 6.58919
lowerneck -2.3044 -13.4636 -18.2819
upperneck 9.23082 -19.1961 15.0008
head 6.3994 -9.50474 5.95495
rclavicle -7.7849e-014 3.16068e-014
rhumerus -37.7853 14.9712 -83.2233
rradius 68.7802
rwrist -12.8532
rhand -4.11089 16.8271
rfingers 7.12502
rthumb 21.6475 -11.9828
lclavicle -7.7849e-014 3.16068e-014
lhumerus 7.62959 -27.7541 75.5022
lradius 64.2722
lwrist -11.173
lhand 21.3823 28.2192
lfingers 7.12502
lthumb 45.8206 51.388
rfemur -23.787 -10.8778 18.7332
rtibia 33.4292
rfoot -7.55201 -12.3322
rtoes 7.22517
lfemur 6.31212 2.16307 2.28803
ltibia 28.2555
lfoot 5.88408 23.1954
ltoes 1.7748
